<mxfile host="app.diagrams.net" modified="2024-05-24T07:43:12.486Z" agent="Mozilla/5.0 (Windows NT 10.0; Win64; x64) AppleWebKit/537.36 (KHTML, like Gecko) Chrome/124.0.0.0 Safari/537.36" version="24.4.7" etag="OMth7eg6j9Y1gA4Eu3cX" type="github">
  <diagram name="Page-1" id="0ttw6qHVq25Xm2vJ7ruO">
    <mxGraphModel>
      <root>
        <mxCell id="0" />
        <mxCell id="1" parent="0" />
      </root>
    </mxGraphModel>
  </diagram>
</mxfile>
